<svg xmlns="http://www.w3.org/2000/svg" width="32" height="32" viewBox="0 0 32 32">
  <g id="Instagram" transform="translate(-3.842 -127.964)">
    <path id="Box" d="M0,0H32V32H0Z" transform="translate(3.842 127.964)" fill="none"/>
    <g id="Icon" transform="translate(-4.766 0.019)">
      <circle id="Ellipse_5" data-name="Ellipse 5" cx="4.361" cy="4.361" r="4.361" transform="translate(20.865 139.203)"/>
      <path id="Path_5" data-name="Path 5" d="M30.177,132.945h-9.9a5.674,5.674,0,0,0-5.667,5.665v9.9a5.673,5.673,0,0,0,5.667,5.667h9.9a5.671,5.671,0,0,0,5.665-5.667v-9.9A5.672,5.672,0,0,0,30.177,132.945Zm-4.952,17.323a6.7,6.7,0,1,1,6.7-6.7A6.712,6.712,0,0,1,25.226,150.268Zm6.983-12.04a1.649,1.649,0,1,1,1.649-1.649A1.648,1.648,0,0,1,32.209,138.227Z"/>
    </g>
  </g>
</svg>
