<svg xmlns="http://www.w3.org/2000/svg" width="1402" height="727.577" viewBox="0 0 1402 727.577">
  <g id="rto" transform="translate(-20.505 -11.5)" style="isolation: isolate">
    <g id="Group_18" data-name="Group 18" transform="translate(21.505 12.5)" style="isolation: isolate">
      <path id="Path_2" data-name="Path 2" d="M21.505,699.256V135.447H174.947V318.626h13.084C223.715,161.616,271.294,129.5,345.041,129.5h16.653V315.057H328.388c-113,0-145.115,33.305-145.115,133.221V699.256Z" transform="translate(-21.505 9.668)" fill="none" stroke="#fff" stroke-width="2"/>
      <path id="Path_3" data-name="Path 3" d="M408.489,286.078H339.5V157.615h68.989V12.5H570.257V157.615H718.941V286.078H570.257V518.025c0,45.2,16.653,67.8,65.421,67.8,24.979,0,52.337-7.137,73.747-14.274l17.842,145.115c-42.821,13.084-71.368,21.41-133.22,21.41-130.842,0-185.557-86.831-185.557-193.884Z" transform="translate(38.745 -12.5)" fill="none" stroke="#fff" stroke-width="2"/>
      <path id="Path_4" data-name="Path 4" d="M710.5,418.867c0-187.936,111.81-297.367,291.42-297.367,176.041,0,289.041,109.431,289.041,297.367,0,185.557-109.431,298.557-289.041,298.557C818.742,717.424,710.5,604.425,710.5,418.867Zm161.768-1.189c0,102.294,36.874,161.768,128.463,161.768,90.4,0,128.463-59.474,128.463-161.768S1089.941,257.1,1000.731,257.1,872.268,315.384,872.268,417.678Z" transform="translate(109.039 8.152)" fill="none" stroke="#fff" stroke-width="2"/>
    </g>
  </g>
</svg>
