<svg xmlns="http://www.w3.org/2000/svg" width="1179.995" height="613" viewBox="0 0 1179.995 613">
  <g>
    <path d="M1.5,597.5v-474h129v154h11c30-132,70-159,132-159h14v156h-28c-95,0-122,28-122,112v211Z" fill="none" stroke="#fff" stroke-width="3"/>
    <path d="M377.5,231.5h-58v-108h58V1.5h136v122h125v108h-125v195c0,38,14,57,55,57,21,0,44-6,62-12l15,122c-36,11-60,18-112,18-110,0-156-73-156-163Z" fill="none" stroke="#fff" stroke-width="3"/>
    <path d="M690.5,360.5c0-158,94-250,245-250,148,0,243,92,243,250,0,156-92,251-243,251C781.5,611.5,690.5,516.5,690.5,360.5Zm136-1c0,86,31,136,108,136,76,0,108-50,108-136s-33-135-108-135S826.5,273.5,826.5,359.5Z" fill="none" stroke="#fff" stroke-width="3"/>
  </g>
</svg>
