<?xml version="1.0" encoding="utf-8"?>
<!-- Generator: Adobe Illustrator 25.0.0, SVG Export Plug-In . SVG Version: 6.00 Build 0)  -->
<svg version="1.1" id="Layer_1" xmlns="http://www.w3.org/2000/svg" xmlns:xlink="http://www.w3.org/1999/xlink" x="0px" y="0px"
	 viewBox="0 0 1440 835" style="enable-background:new 0 0 1440 835;" xml:space="preserve">
<style type="text/css">
	.st0{fill:none;stroke:#FFFFFF;stroke-width:2;}
</style>
<g id="Group_32" transform="translate(0 101)">
	<g id="rto" transform="translate(-1.505 -27.5)">
		<g id="Group_18" transform="translate(21.505 -18.5)">
			<path id="Path_2" class="st0" d="M0,708.9V145.1h153.4v183.2h13.1c35.7-157,83.3-189.1,157-189.1h16.7v185.6h-33.3
				c-113,0-145.1,33.3-145.1,133.2v251H0z"/>
			<path id="Path_3" class="st0" d="M447.2,273.6h-69V145.1h69V0H609v145.1h148.7v128.5H609v231.9c0,45.2,16.7,67.8,65.4,67.8
				c25,0,52.3-7.1,73.7-14.3L766,704.2c-42.8,13.1-71.4,21.4-133.2,21.4c-130.8,0-185.6-86.8-185.6-193.9L447.2,273.6z"/>
			<path id="Path_4" class="st0" d="M819.5,427c0-187.9,111.8-297.4,291.4-297.4c176,0,289,109.4,289,297.4
				c0,185.6-109.4,298.6-289,298.6C927.8,725.6,819.5,612.6,819.5,427z M981.3,425.8c0,102.3,36.9,161.8,128.5,161.8
				c90.4,0,128.5-59.5,128.5-161.8s-39.3-160.6-128.5-160.6S981.3,323.5,981.3,425.8z"/>
		</g>
	</g>
</g>
</svg>
